<svg width="100" height="94" viewBox="0 0 100 94" fill="none" xmlns="http://www.w3.org/2000/svg">
<path d="M98.4649 21.0557C97.2413 16.9273 95.2266 13.1272 92.5534 9.90553C89.8802 6.68384 86.6091 4.11361 82.9554 2.36402C74.5866 -1.63802 65.9321 -0.50566 57.8918 5.66803C54.9374 7.97091 52.2812 10.6943 49.9942 13.7652C47.7073 10.6943 45.0511 7.97091 42.0967 5.66803C34.0706 -0.536683 25.4019 -1.65353 17.0331 2.34851C13.3852 4.08718 10.1174 6.64462 7.44431 9.85277C4.77126 13.0609 2.75349 16.8471 1.52361 20.9626C0.20324 25.2952 -0.266698 29.8802 0.144082 34.4221C0.554862 38.964 1.83725 43.362 3.90858 47.3327C11.0492 61.0141 25.4305 76.3242 46.7524 92.8442C47.7212 93.5959 48.8821 94 50.0728 94C51.2634 94 52.4243 93.5959 53.3932 92.8442C74.6152 76.3552 88.9964 61.0451 96.1513 47.3482C98.2008 43.382 99.4652 38.9948 99.8636 34.4672C100.262 29.9397 99.7856 25.3717 98.4649 21.0557ZM92.7524 45.2851C85.8402 58.4546 71.8303 73.3769 51.0653 89.4316C50.755 89.6729 50.383 89.8026 50.0014 89.8026C49.6198 89.8026 49.2477 89.6729 48.9374 89.4316C28.1582 73.2839 14.134 58.4081 7.27896 45.2696C5.48396 41.8179 4.37255 37.997 4.01596 34.0517C3.65937 30.1064 4.06544 26.1237 5.20818 22.3587C6.26123 18.7932 7.99657 15.5099 10.3003 12.7243C12.6041 9.93868 15.4241 7.71371 18.5754 6.19543C21.1988 4.91279 24.039 4.23664 26.9157 4.20992C31.5588 4.32061 36.0534 6.00758 39.7688 9.03409C43.0808 11.6292 45.9759 14.8 48.3376 18.4187C48.514 18.7086 48.7537 18.9466 49.0352 19.1117C49.3167 19.2768 49.6315 19.3638 49.9514 19.3649C50.2716 19.3652 50.5868 19.2788 50.8685 19.1136C51.1502 18.9484 51.3897 18.7096 51.5652 18.4187C51.7365 18.2171 64.2755 -2.0103 81.413 6.21094C84.5716 7.72652 87.3986 9.95201 89.7076 12.7407C92.0166 15.5294 93.7552 18.818 94.8089 22.3897C95.947 26.1542 96.3482 30.1356 95.9866 34.0784C95.6251 38.0212 94.5089 41.8384 92.7095 45.2851H92.7524Z" fill="#333333"/>
</svg>
