<svg width="144" height="19" viewBox="0 0 144 19" fill="none" xmlns="http://www.w3.org/2000/svg">
<path d="M0 0.133803H1.36817V17.6352H12.1794V18.8662H0V0.133803Z" fill="black"/>
<path d="M23.2934 19C21.4513 19 19.7881 18.5897 18.3036 17.769C16.8192 16.9305 15.6478 15.7887 14.7893 14.3437C13.9488 12.8986 13.5285 11.284 13.5285 9.5C13.5285 7.71596 13.9488 6.10141 14.7893 4.65634C15.6478 3.21127 16.8192 2.0784 18.3036 1.25775C19.7881 0.419249 21.4513 0 23.2934 0C25.1355 0 26.7988 0.410329 28.2832 1.23099C29.7676 2.05164 30.9301 3.18451 31.7707 4.62958C32.6292 6.07465 33.0584 7.69812 33.0584 9.5C33.0584 11.3019 32.6292 12.9254 31.7707 14.3704C30.9301 15.8155 29.7676 16.9484 28.2832 17.769C26.7988 18.5897 25.1355 19 23.2934 19ZM23.2934 17.7423C24.8673 17.7423 26.2891 17.3854 27.5589 16.6718C28.8287 15.9582 29.8302 14.977 30.5635 13.7282C31.2968 12.4615 31.6634 11.0521 31.6634 9.5C31.6634 7.94789 31.2968 6.54742 30.5635 5.29859C29.8302 4.03193 28.8287 3.04178 27.5589 2.32817C26.2891 1.61455 24.8673 1.25775 23.2934 1.25775C21.7196 1.25775 20.2888 1.61455 19.0011 2.32817C17.7313 3.04178 16.7298 4.03193 15.9965 5.29859C15.2633 6.54742 14.8966 7.94789 14.8966 9.5C14.8966 11.0521 15.2633 12.4615 15.9965 13.7282C16.7298 14.977 17.7313 15.9582 19.0011 16.6718C20.2888 17.3854 21.7196 17.7423 23.2934 17.7423Z" fill="black"/>
<path d="M51.2172 9.58028H52.5317V16.5916C51.709 17.3765 50.7075 17.9742 49.5271 18.3845C48.3646 18.7948 47.1306 19 45.825 19C43.965 19 42.2839 18.5897 40.7816 17.769C39.2971 16.9484 38.1257 15.8155 37.2673 14.3704C36.4267 12.9254 36.0064 11.3019 36.0064 9.5C36.0064 7.69812 36.4267 6.07465 37.2673 4.62958C38.1257 3.18451 39.2971 2.05164 40.7816 1.23099C42.2839 0.410329 43.974 0 45.8518 0C47.2289 0 48.4898 0.223005 49.6344 0.669015C50.7969 1.09718 51.7895 1.73052 52.6122 2.56902L51.7537 3.47887C50.9668 2.6939 50.0815 2.13193 49.0979 1.79296C48.1321 1.43615 47.059 1.25775 45.8787 1.25775C44.2691 1.25775 42.8115 1.61455 41.5059 2.32817C40.2182 3.04178 39.2077 4.03193 38.4745 5.29859C37.7412 6.54742 37.3746 7.94789 37.3746 9.5C37.3746 11.0343 37.7412 12.4347 38.4745 13.7014C39.2256 14.9502 40.245 15.9404 41.5327 16.6718C42.8204 17.3854 44.2691 17.7423 45.8787 17.7423C48.0248 17.7423 49.8043 17.1714 51.2172 16.0296V9.58028Z" fill="black"/>
<path d="M66.5202 19C64.6781 19 63.0148 18.5897 61.5304 17.769C60.046 16.9305 58.8746 15.7887 58.0161 14.3437C57.1755 12.8986 56.7553 11.284 56.7553 9.5C56.7553 7.71596 57.1755 6.10141 58.0161 4.65634C58.8746 3.21127 60.046 2.0784 61.5304 1.25775C63.0148 0.419249 64.6781 0 66.5202 0C68.3623 0 70.0256 0.410329 71.51 1.23099C72.9944 2.05164 74.1569 3.18451 74.9975 4.62958C75.8559 6.07465 76.2852 7.69812 76.2852 9.5C76.2852 11.3019 75.8559 12.9254 74.9975 14.3704C74.1569 15.8155 72.9944 16.9484 71.51 17.769C70.0256 18.5897 68.3623 19 66.5202 19ZM66.5202 17.7423C68.094 17.7423 69.5159 17.3854 70.7857 16.6718C72.0555 15.9582 73.057 14.977 73.7903 13.7282C74.5235 12.4615 74.8902 11.0521 74.8902 9.5C74.8902 7.94789 74.5235 6.54742 73.7903 5.29859C73.057 4.03193 72.0555 3.04178 70.7857 2.32817C69.5159 1.61455 68.094 1.25775 66.5202 1.25775C64.9464 1.25775 63.5156 1.61455 62.2279 2.32817C60.9581 3.04178 59.9566 4.03193 59.2233 5.29859C58.4901 6.54742 58.1234 7.94789 58.1234 9.5C58.1234 11.0521 58.4901 12.4615 59.2233 13.7282C59.9566 14.977 60.9581 15.9582 62.2279 16.6718C63.5156 17.3854 64.9464 17.7423 66.5202 17.7423Z" fill="black"/>
<path d="M84.3634 1.36479H77.603V0.133803H92.4919V1.36479H85.7316V18.8662H84.3634V1.36479Z" fill="black"/>
<path d="M101.601 12.4169V18.8662H100.233V12.4169L92.6675 0.133803H94.1698L100.957 11.1592L107.744 0.133803H109.166L101.601 12.4169Z" fill="black"/>
<path d="M118.861 0.133803C121.222 0.133803 123.073 0.695775 124.414 1.81972C125.756 2.92582 126.426 4.46901 126.426 6.4493C126.426 8.41174 125.756 9.95493 124.414 11.0789C123.073 12.185 121.222 12.738 118.861 12.738H113.496V18.8662H112.128V0.133803H118.861ZM118.861 11.507C120.864 11.507 122.393 11.07 123.449 10.1958C124.504 9.3216 125.031 8.07277 125.031 6.4493C125.031 4.82582 124.504 3.577 123.449 2.70282C122.393 1.8108 120.864 1.36479 118.861 1.36479H113.496V11.507H118.861Z" fill="black"/>
<path d="M144 17.6352V18.8662H131.043V0.133803H143.598V1.36479H132.411V8.7507H142.417V9.95493H132.411V17.6352H144Z" fill="black"/>
</svg>
