<svg width="12" height="12" viewBox="0 0 12 12" fill="none" xmlns="http://www.w3.org/2000/svg">
<path d="M11.6851 9.25759L9.25627 7.63772C8.94804 7.4338 8.53488 7.5009 8.30701 7.7919L7.59951 8.70163C7.50859 8.82152 7.3433 8.8563 7.21177 8.78323L7.07719 8.70903C6.63105 8.46584 6.07595 8.16308 4.95751 7.04416C3.83907 5.92525 3.53572 5.36968 3.29254 4.92433L3.21875 4.78974C3.14468 4.65822 3.1788 4.49223 3.29873 4.40057L4.20778 3.69323C4.49865 3.46532 4.56583 3.05224 4.36217 2.7439L2.74241 0.314883C2.53368 0.000891945 2.11491 -0.0933664 1.79178 0.100892L0.776128 0.71104C0.457003 0.898666 0.222874 1.20253 0.122834 1.55897C-0.242901 2.89166 0.0322375 5.19169 3.42014 8.58023C6.11515 11.2752 8.12146 12 9.50045 12C9.81782 12.0013 10.1339 11.96 10.4403 11.8772C10.7968 11.7773 11.1007 11.5431 11.2882 11.2238L11.8989 10.2087C12.0934 9.8855 11.9992 9.46645 11.6851 9.25759ZM11.5543 10.0035L10.945 11.0193C10.8104 11.2497 10.5918 11.4191 10.3351 11.492C9.10489 11.8298 6.95561 11.55 3.70309 8.29727C0.450559 5.04451 0.170827 2.89527 0.508581 1.66478C0.581602 1.40774 0.751217 1.18887 0.981902 1.05402L1.99756 0.44467C2.13776 0.360302 2.31952 0.401197 2.41009 0.537452L3.28997 1.85855L4.02847 2.96626C4.11691 3.1 4.08785 3.27926 3.96168 3.37823L3.05242 4.08557C2.77571 4.29717 2.69669 4.68004 2.86705 4.98391L2.93925 5.1151C3.19482 5.58386 3.51257 6.16701 4.6726 7.32694C5.83263 8.48684 6.41555 8.80463 6.88407 9.06019L7.01544 9.13259C7.31926 9.30294 7.70213 9.22394 7.91371 8.94721L8.621 8.03788C8.71998 7.91177 8.89916 7.88274 9.03295 7.97109L11.4616 9.59097C11.5979 9.68147 11.6388 9.86333 11.5543 10.0035Z" fill="#333333"/>
<path d="M6.79966 2.00069C8.67629 2.00278 10.1971 3.52368 10.1992 5.40044C10.1992 5.51089 10.2887 5.60042 10.3991 5.60042C10.5096 5.60042 10.5991 5.51089 10.5991 5.40044C10.5968 3.30287 8.89708 1.60304 6.79966 1.60074C6.68922 1.60074 6.5997 1.69026 6.5997 1.80072C6.5997 1.91117 6.68922 2.00069 6.79966 2.00069Z" fill="#333333"/>
<path d="M6.79966 3.20058C8.01392 3.20201 8.99792 4.18608 8.99935 5.40042C8.99935 5.51087 9.08889 5.6004 9.19931 5.6004C9.30975 5.6004 9.39927 5.51087 9.39927 5.40042C9.39761 3.96526 8.23469 2.80227 6.79966 2.80063C6.68922 2.80063 6.5997 2.89015 6.5997 3.00061C6.5997 3.11106 6.68922 3.20058 6.79966 3.20058Z" fill="#333333"/>
<path d="M6.79966 4.40044C7.35158 4.4011 7.79884 4.84839 7.79952 5.40037C7.79952 5.51083 7.88907 5.60035 7.99949 5.60035C8.10991 5.60035 8.19945 5.51083 8.19945 5.40037C8.19856 4.6276 7.57238 4.00136 6.79966 4.00049C6.68922 4.00049 6.5997 4.09001 6.5997 4.20047C6.5997 4.31092 6.68922 4.40044 6.79966 4.40044Z" fill="#333333"/>
</svg>
