<svg width="100" height="100" viewBox="0 0 100 100" fill="none" xmlns="http://www.w3.org/2000/svg">
<path d="M99.3115 94.0579L74.1175 68.8638C73.6683 68.4146 73.0824 68.1803 72.4574 68.1803H70.4458C77.1447 60.9345 81.246 51.267 81.246 40.623C81.246 18.1827 63.0633 0 40.623 0C18.1827 0 0 18.1827 0 40.623C0 63.0633 18.1827 81.246 40.623 81.246C51.267 81.246 60.9345 77.1447 68.1803 70.4653V72.4574C68.1803 73.0824 68.4342 73.6683 68.8638 74.1175L94.0579 99.3115C94.9758 100.229 96.4601 100.229 97.3781 99.3115L99.3115 97.3781C100.229 96.4601 100.229 94.9758 99.3115 94.0579ZM40.623 74.9963C21.62 74.9963 6.24969 59.626 6.24969 40.623C6.24969 21.62 21.62 6.24969 40.623 6.24969C59.626 6.24969 74.9963 21.62 74.9963 40.623C74.9963 59.626 59.626 74.9963 40.623 74.9963Z" fill="#333333"/>
</svg>
