<svg width="104" height="104" viewBox="0 0 104 104" fill="none" xmlns="http://www.w3.org/2000/svg">
<path d="M88.7697 67.2303C83.1059 61.5668 76.3646 57.3741 69.0095 54.836C76.8871 49.4104 82.0625 40.3301 82.0625 30.0625C82.0625 13.4861 68.5764 0 52 0C35.4236 0 21.9375 13.4861 21.9375 30.0625C21.9375 40.3301 27.1129 49.4104 34.9907 54.836C27.6356 57.3741 20.8943 61.5668 15.2305 67.2303C5.40902 77.052 0 90.1103 0 104H8.125C8.125 79.8072 27.8072 60.125 52 60.125C76.1928 60.125 95.875 79.8072 95.875 104H104C104 90.1103 98.591 77.052 88.7697 67.2303ZM52 52C39.9037 52 30.0625 42.159 30.0625 30.0625C30.0625 17.966 39.9037 8.125 52 8.125C64.0963 8.125 73.9375 17.966 73.9375 30.0625C73.9375 42.159 64.0963 52 52 52Z" fill="#333333"/>
</svg>
