<svg width="23" height="22" viewBox="0 0 23 22" fill="none" xmlns="http://www.w3.org/2000/svg">
<path d="M18.7579 1.27744L18.7581 1.2775C19.5691 1.66587 20.2936 2.23562 20.8846 2.94792C21.4754 3.65989 21.9197 4.49839 22.1894 5.40784M18.7579 1.27744L22.1897 5.4089C22.1896 5.40854 22.1895 5.40819 22.1894 5.40784M18.7579 1.27744C16.8833 0.380973 14.9421 0.643231 13.1651 2.00767L13.1637 2.00879M18.7579 1.27744L13.1637 2.00879M22.1894 5.40784C22.4796 6.3568 22.5841 7.36063 22.4966 8.35537C22.409 9.35048 22.1311 10.3156 21.6798 11.1888L21.6793 11.1898C20.1324 14.1512 17.0394 17.4351 12.5136 20.9515L12.5135 20.9516C12.2649 21.1445 11.9644 21.25 11.6538 21.25C11.3433 21.25 11.0427 21.1445 10.7942 20.9517M22.1894 5.40784L10.7942 20.9517M10.7942 20.9517C10.7942 20.9517 10.7941 20.9516 10.7941 20.9516L10.9473 20.7541L10.7942 20.9517ZM10.7942 20.9517C6.24706 17.4286 3.15394 14.1447 1.60998 11.1865L1.60996 11.1864C1.15387 10.3121 0.871958 9.34464 0.781672 8.34637C0.691407 7.34833 0.794581 6.34063 1.08483 5.38792C1.35592 4.48108 1.80097 3.64544 2.39183 2.9363C2.98284 2.22699 3.70659 1.66005 4.51635 1.27407M10.7942 20.9517L4.51635 1.27407M13.1637 2.00879C12.6018 2.44682 12.0895 2.954 11.6371 3.51968C11.1846 2.954 10.6724 2.44682 10.1104 2.00879L10.1096 2.00818M13.1637 2.00879L10.1096 2.00818M10.1096 2.00818C8.33513 0.636351 6.39065 0.377828 4.51635 1.27407M10.1096 2.00818L4.51635 1.27407M12.3603 20.7541C16.8756 17.2458 19.9354 13.9883 21.4577 11.0741L12.3603 20.7541ZM20.3129 10.8851H20.3135C18.8048 13.5517 15.9254 16.5726 11.712 19.8302L11.7115 19.8306C11.688 19.849 11.6624 19.8569 11.6386 19.8569C11.6148 19.8569 11.5892 19.849 11.5657 19.8306L11.5656 19.8306C7.15433 16.4025 4.20411 13.2641 2.77042 10.5163C2.40386 9.81136 2.17643 9.03008 2.10344 8.22253C2.03045 7.41492 2.11362 6.59984 2.34735 5.82978L2.34735 5.82978L2.34788 5.82798C2.56265 5.10081 2.91619 4.43254 3.38421 3.86662C3.85219 3.30076 4.42381 2.85027 5.06073 2.5434L5.06074 2.5434L5.06203 2.54277C5.58596 2.2866 6.15212 2.1517 6.72493 2.14576C7.65402 2.16885 8.5557 2.50678 9.30357 3.11598L9.30354 3.11601L9.30726 3.11893C9.98891 3.65304 10.5858 4.30618 11.0733 5.05261C11.1313 5.14651 11.2108 5.22585 11.3066 5.28199C11.4038 5.33897 11.5139 5.36979 11.6271 5.3702L11.6278 5.3702C11.7413 5.37028 11.852 5.33957 11.9495 5.28238C12.0469 5.22529 12.1274 5.14412 12.1854 5.04803L12.1853 5.048C12.191 5.0397 12.1976 5.03001 12.2052 5.019C12.3714 4.77538 12.9779 3.88658 13.9449 3.14668C15.0315 2.31519 16.5082 1.72868 18.2138 2.54687C18.8521 2.85318 19.4251 3.30376 19.8942 3.87023C20.3632 4.43675 20.7174 5.10608 20.9323 5.83451L20.9328 5.83612C21.1656 6.60606 21.2477 7.42083 21.1737 8.22789C21.0997 9.03495 20.8713 9.8155 20.5038 10.5194L20.3129 10.8851Z" fill="#CE3131" stroke="#CE3131" stroke-width="0.5"/>
</svg>
